<svg width="500" height="500" viewBox="0 0 500 500" fill="#111827" xmlns="http://www.w3.org/2000/svg">
<path d="M 161.9 132.7 C 63.9 210.3 54.2 317.1 132.6 452.9 M 338.2 365.5 C 436.2 287.9 445.9 183.1 367.6 47.6 M 250 16.3 C 187.8 16.3 127.9 40.9 83.9 84.4 C 39.7 128.1 15.1 187.6 15.1 249.2 C 15.1 310.7 39.7 370.2 83.9 413.9 C 127.9 457.5 187.8 482 250 482 C 312.3 482 372.2 457.5 416.2 413.9 C 460.3 370.2 485 310.7 485 249.2 C 485 187.6 460.3 128.1 416.2 84.4 C 372.2 40.9 312.3 16.3 250 16.3 Z M 250 103.6 C 210.9 103.6 173.6 119 146.2 146.4 C 118.7 173.5 103.2 210.5 103.2 249.2 C 103.2 287.8 118.7 324.8 146.2 351.9 C 173.6 379.3 210.9 394.6 250 394.6 C 289.2 394.6 326.4 379.3 353.9 351.9 C 381.4 324.8 396.9 287.8 396.9 249.2 C 396.9 210.5 381.4 173.5 353.9 146.4 C 326.4 119 289.2 103.6 250 103.6 Z" stroke="white" stroke-width="30" stroke-linejoin="round"/>
</svg>
