<svg width="500" height="500" viewBox="0 0 500 500" fill="black" xmlns="http://www.w3.org/2000/svg">
<path d="M 161.9 130.2 C 63.9 208.4 54.2 315.9 132.6 452.7 M 338.2 364.7 C 436.2 286.5 445.9 181 367.6 44.5 M 250 13 C 187.8 13 127.9 37.7 83.9 81.6 C 39.7 125.6 15.1 185.5 15.1 247.5 C 15.1 309.5 39.7 369.4 83.9 413.4 C 127.9 457.3 187.8 482 250 482 C 312.3 482 372.2 457.3 416.2 413.4 C 460.3 369.4 485 309.5 485 247.5 C 485 185.5 460.3 125.6 416.2 81.6 C 372.2 37.7 312.3 13 250 13 Z M 250 100.9 C 210.9 100.9 173.6 116.4 146.2 144 C 118.7 171.3 103.2 208.6 103.2 247.5 C 103.2 286.4 118.7 323.7 146.2 351 C 173.6 378.6 210.9 394 250 394 C 289.2 394 326.4 378.6 353.9 351 C 381.4 323.7 396.9 286.4 396.9 247.5 C 396.9 208.6 381.4 171.3 353.9 144 C 326.4 116.4 289.2 100.9 250 100.9 Z" stroke="white" stroke-width="30" stroke-linejoin="round"/>
</svg>
