<svg width="100" height="100" viewBox="0 0 500 500" fill="none" xmlns="http://www.w3.org/2000/svg">
<path fill-rule="evenodd" clip-rule="evenodd" d="M250 237.5C256.904 237.5 262.5 231.904 262.5 225C262.5 218.096 256.904 212.5 250 212.5C243.096 212.5 237.5 218.096 237.5 225C237.5 231.904 243.096 237.5 250 237.5ZM250 250C263.807 250 275 238.807 275 225C275 211.193 263.807 200 250 200C236.193 200 225 211.193 225 225C225 238.807 236.193 250 250 250Z" fill="white"/>
<path fill-rule="evenodd" clip-rule="evenodd" d="M262.5 275C283.211 275 300 258.211 300 237.5C300 216.789 283.211 200 262.5 200C241.789 200 225 216.789 225 237.5C225 258.211 241.789 275 262.5 275ZM262.5 287.5C290.114 287.5 312.5 265.114 312.5 237.5C312.5 209.886 290.114 187.5 262.5 187.5C234.886 187.5 212.5 209.886 212.5 237.5C212.5 265.114 234.886 287.5 262.5 287.5Z" fill="white"/>
<path fill-rule="evenodd" clip-rule="evenodd" d="M250 312.5C284.518 312.5 312.5 284.518 312.5 250C312.5 215.482 284.518 187.5 250 187.5C215.482 187.5 187.5 215.482 187.5 250C187.5 284.518 215.482 312.5 250 312.5ZM250 325C291.421 325 325 291.421 325 250C325 208.579 291.421 175 250 175C208.579 175 175 208.579 175 250C175 291.421 208.579 325 250 325Z" fill="white"/>
</svg>
