<svg width="25" height="25" viewBox="0 0 25 25" fill="none" xmlns="http://www.w3.org/2000/svg">
<path d="M8.72699 15.2965L12.417 11.6065L16.107 15.2965L17.817 13.6165L12.417 8.2165L7.01699 13.6165L8.72699 15.2965ZM12.417 24.4165C10.757 24.4165 9.19699 24.1015 7.73699 23.4715C6.27699 22.8415 5.00699 21.9865 3.92699 20.9065C2.84699 19.8265 1.99199 18.5565 1.36199 17.0965C0.731992 15.6365 0.416992 14.0765 0.416992 12.4165C0.416992 10.7565 0.731992 9.1965 1.36199 7.7365C1.99199 6.2765 2.84699 5.0065 3.92699 3.9265C5.00699 2.8465 6.27699 1.9915 7.73699 1.3615C9.19699 0.731504 10.757 0.416504 12.417 0.416504C14.077 0.416504 15.637 0.731504 17.097 1.3615C18.557 1.9915 19.827 2.8465 20.907 3.9265C21.987 5.0065 22.842 6.2765 23.472 7.7365C24.102 9.1965 24.417 10.7565 24.417 12.4165C24.417 14.0765 24.102 15.6365 23.472 17.0965C22.842 18.5565 21.987 19.8265 20.907 20.9065C19.827 21.9865 18.557 22.8415 17.097 23.4715C15.637 24.1015 14.077 24.4165 12.417 24.4165ZM12.417 22.0165C15.097 22.0165 17.367 21.0865 19.227 19.2265C21.087 17.3665 22.017 15.0965 22.017 12.4165C22.017 9.7365 21.087 7.4665 19.227 5.6065C17.367 3.7465 15.097 2.8165 12.417 2.8165C9.73699 2.8165 7.46699 3.7465 5.60699 5.6065C3.74699 7.4665 2.81699 9.7365 2.81699 12.4165C2.81699 15.0965 3.74699 17.3665 5.60699 19.2265C7.46699 21.0865 9.73699 22.0165 12.417 22.0165Z" fill="#428DFF"/>
</svg>
