<?xml version="1.0" standalone="no"?>
<!DOCTYPE svg PUBLIC "-//W3C//DTD SVG 20010904//EN"
 "http://www.w3.org/TR/2001/REC-SVG-20010904/DTD/svg10.dtd">
<svg version="1.0" xmlns="http://www.w3.org/2000/svg"
 width="1080.000000pt" height="1080.000000pt" viewBox="0 0 1080.000000 1080.000000"
 preserveAspectRatio="xMidYMid meet">

<g transform="translate(0.000000,1080.000000) scale(0.100000,-0.100000)"
fill="#000000" stroke="none">
<path d="M4778 10245 c-290 -49 -527 -214 -676 -473 -34 -58 -92 -189 -92
-206 0 -3 11 -6 24 -6 36 0 188 -46 261 -79 241 -110 501 -373 601 -608 30
-70 26 -95 -15 -101 -30 -5 -48 12 -78 72 -70 139 -216 302 -353 396 -102 70
-280 154 -421 201 l-129 43 -63 -30 c-176 -83 -408 -276 -550 -459 -164 -213
-281 -469 -355 -780 -64 -268 -86 -502 -79 -835 5 -257 17 -338 67 -490 70
-210 446 -855 723 -1240 243 -338 450 -556 595 -628 62 -30 86 -36 157 -40 77
-4 90 -2 140 22 58 29 105 89 105 135 0 15 -41 67 -116 151 -102 113 -119 127
-135 117 -13 -8 -26 -8 -46 -1 -32 11 -30 -10 -18 229 9 165 -6 242 -74 383
l-50 102 -44 0 c-57 0 -201 41 -275 79 -268 135 -446 421 -492 794 -16 128 -8
388 15 477 46 178 141 305 275 369 72 34 80 36 180 36 91 -1 112 -4 160 -26
129 -61 230 -181 289 -345 18 -49 72 -253 121 -454 89 -364 110 -441 131 -467
12 -14 51 -16 121 -7 41 6 48 10 67 50 12 23 34 87 49 141 l27 98 0 475 c0
456 1 479 23 579 56 254 164 424 332 519 80 46 105 83 113 165 17 183 161 389
332 473 77 38 81 39 190 39 108 0 113 -1 188 -38 88 -44 179 -113 322 -248
200 -188 367 -291 591 -365 186 -60 304 -78 519 -78 213 1 224 3 380 79 233
115 404 320 481 580 38 127 45 329 16 465 -71 339 -255 564 -504 616 -142 30
-230 5 -408 -115 -141 -96 -177 -115 -277 -143 -66 -19 -101 -23 -233 -22
-249 0 -427 40 -937 208 -363 119 -513 160 -698 187 -150 22 -359 24 -477 4z"/>
<path d="M5749 8997 c-96 -27 -193 -107 -239 -197 -18 -35 -90 -215 -90 -225
0 -1 26 -5 58 -7 43 -4 72 -14 117 -41 96 -59 106 -56 193 72 45 66 89 91 159
91 44 0 61 -6 115 -42 l63 -43 77 10 c57 7 83 16 99 31 l21 22 -117 113 c-123
120 -216 190 -275 208 -61 18 -133 21 -181 8z"/>
<path d="M6334 8555 c-83 -88 -173 -98 -285 -31 -95 56 -129 48 -192 -46 -54
-81 -88 -109 -140 -115 -59 -7 -106 10 -164 58 -59 49 -108 52 -184 13 -42
-21 -56 -24 -79 -15 -27 9 -32 6 -84 -50 -136 -147 -211 -314 -246 -549 -7
-48 -10 -232 -8 -520 3 -404 1 -453 -16 -530 -51 -234 -133 -344 -274 -366
-120 -18 -238 119 -311 361 -12 39 -50 196 -85 350 -95 413 -139 516 -260 600
-54 38 -62 40 -129 40 -89 0 -133 -20 -202 -90 -100 -102 -142 -225 -152 -440
-14 -308 74 -595 239 -779 98 -110 253 -190 395 -203 58 -5 72 -11 106 -42 72
-65 141 -185 173 -301 13 -46 18 -105 19 -197 l1 -132 49 -62 c75 -96 279
-303 390 -396 292 -246 626 -411 962 -475 169 -32 480 -32 634 0 635 132 994
561 1091 1302 13 101 14 357 8 1190 -4 486 -4 491 36 1055 l7 90 -209 0 c-179
0 -225 3 -323 23 -225 46 -444 135 -618 251 -50 34 -93 61 -95 60 -1 0 -26
-24 -54 -54z m-614 -626 c108 -50 160 -117 160 -207 0 -75 -19 -87 -128 -82
-112 6 -264 6 -375 0 -84 -5 -90 -4 -108 19 -23 28 -25 87 -5 135 28 66 116
134 203 156 69 17 192 7 253 -21z m1501 -36 c97 -44 159 -124 159 -208 0 -82
6 -81 -319 -80 -321 1 -311 -2 -311 82 0 93 78 182 192 219 64 21 220 14 279
-13z m-3303 -460 c21 -9 69 -49 108 -88 128 -128 183 -277 138 -371 -29 -60
-73 -73 -201 -60 -69 8 -72 7 -88 -18 -21 -31 -15 -76 20 -153 33 -74 69 -115
158 -184 47 -37 77 -68 77 -79 0 -26 -27 -50 -56 -50 -78 0 -247 143 -309 262
-104 198 -12 403 154 344 127 -46 163 2 97 129 -54 102 -88 138 -168 180 -103
53 -103 54 -77 82 28 28 93 31 147 6z m1698 -138 c12 -8 32 -38 45 -67 21 -47
24 -68 24 -179 0 -120 -1 -128 -30 -185 -52 -101 -115 -100 -163 4 -25 53 -27
67 -27 187 0 116 3 135 24 178 36 73 81 95 127 62z m1577 -13 c46 -48 61 -104
61 -232 0 -98 -3 -122 -22 -165 -58 -128 -133 -127 -181 1 -81 213 27 516 142
396z m-620 -249 c50 -82 111 -226 162 -378 72 -216 93 -362 60 -424 -43 -84
-172 -142 -361 -163 -92 -10 -105 -9 -129 6 -42 28 -30 56 30 73 157 44 317
99 335 115 32 30 34 63 12 182 -28 144 -68 284 -137 471 -30 82 -55 155 -55
162 0 7 11 13 24 13 19 0 32 -13 59 -57z m-1041 -1084 c11 -6 48 -40 81 -75
208 -223 433 -312 681 -269 l99 17 24 -25 c37 -36 24 -63 -38 -81 -87 -26
-208 -39 -308 -33 -206 13 -379 83 -497 201 -74 75 -134 176 -134 227 0 43 47
62 92 38z"/>
<path d="M7830 8322 c-25 -9 -50 -20 -56 -24 -6 -4 -14 -47 -18 -95 -3 -48
-14 -185 -23 -303 -19 -242 -24 -1076 -9 -1354 l8 -159 35 79 c85 191 154 451
185 694 22 173 16 651 -11 905 -12 116 -24 225 -27 243 -7 37 -17 39 -84 14z"/>
<path d="M4881 4762 c-15 -226 -46 -583 -71 -829 -26 -247 -26 -250 3 -259 58
-18 988 -389 1107 -442 300 -133 425 -142 578 -42 99 65 90 -8 94 703 l3 629
-35 -6 c-312 -55 -582 -48 -852 20 -244 61 -500 181 -713 333 -44 32 -85 60
-91 64 -8 4 -15 -48 -23 -171z"/>
<path d="M4577 4093 c-20 -16 -250 -277 -512 -580 l-475 -553 21 -42 c12 -24
48 -149 80 -278 56 -227 133 -507 198 -717 l31 -101 48 14 c69 22 227 44 307
44 82 0 119 -15 123 -50 1 -14 -27 -171 -64 -350 -83 -406 -84 -415 -77 -453
10 -56 31 -85 131 -179 154 -146 488 -488 660 -675 l157 -173 533 0 534 0 -59
53 c-402 362 -909 891 -1234 1287 -323 394 -563 782 -682 1100 -37 100 -91
293 -102 370 -6 40 -17 55 -91 127 -133 129 -157 204 -105 326 27 62 166 267
261 387 47 58 152 174 235 258 120 120 157 152 178 152 23 0 27 4 27 30 0 29
-2 30 -44 30 -32 0 -52 -7 -79 -27z"/>
<path d="M4599 3863 c-201 -206 -489 -592 -505 -679 -12 -64 2 -83 163 -239
86 -82 251 -256 368 -385 233 -258 430 -454 545 -542 88 -67 248 -168 265
-168 8 0 17 30 24 78 57 361 193 738 384 1065 56 96 76 109 124 83 60 -30 200
-141 283 -221 l85 -83 75 5 75 5 38 54 c53 76 97 107 160 112 65 5 95 -16 131
-91 32 -68 80 -253 100 -384 15 -92 35 -339 36 -421 0 -32 1 -31 74 55 41 48
131 144 200 213 111 110 126 129 126 158 0 30 -138 453 -225 687 -20 55 -75
177 -120 271 l-84 171 -83 23 c-46 12 -90 24 -99 26 -13 4 -17 -9 -23 -72 -8
-96 -8 -194 0 -194 3 0 17 9 31 20 30 24 61 26 69 5 9 -22 -90 -156 -173 -236
-105 -99 -195 -141 -314 -147 -73 -4 -103 0 -178 22 -127 36 -1544 592 -1578
619 -20 15 -15 55 8 67 11 6 33 9 48 5 24 -5 29 -2 34 17 8 32 20 178 15 178
-2 0 -38 -35 -79 -77z"/>
<path d="M6720 3815 c0 -41 3 -45 28 -50 45 -10 138 -44 207 -77 58 -27 70
-38 110 -99 99 -153 146 -271 303 -754 60 -187 113 -352 116 -367 11 -47 -12
-80 -130 -193 l-115 -110 -19 -115 c-60 -365 -292 -1261 -474 -1832 -36 -113
-66 -209 -66 -212 0 -3 103 -6 229 -6 l229 0 145 443 c80 243 164 501 188 572
23 72 59 174 80 229 44 112 61 192 52 238 -4 20 -34 60 -84 114 -83 87 -95
113 -85 169 11 56 61 97 178 144 163 65 192 106 228 326 11 72 33 181 46 243
14 63 24 115 22 117 -1 1 -34 26 -73 55 -292 220 -502 507 -620 851 -57 166
-69 179 -210 238 -38 16 -118 50 -177 75 l-108 45 0 -44z"/>
<path d="M5912 2898 c-172 -314 -306 -738 -348 -1101 -11 -97 -38 -107 -149
-54 -251 120 -512 342 -856 727 -143 160 -209 230 -209 220 0 -20 76 -224 121
-324 183 -410 481 -825 999 -1396 176 -194 237 -257 243 -249 2 2 21 69 41
149 21 80 82 280 136 445 130 395 154 477 139 486 -7 4 -28 10 -48 13 -41 6
-74 35 -91 80 -17 47 -35 612 -20 665 20 74 60 104 191 145 62 20 131 39 152
43 20 3 37 8 37 12 0 7 -283 211 -293 211 -3 0 -23 -33 -45 -72z"/>
<path d="M3454 2821 c-92 -88 -179 -143 -336 -213 -351 -154 -494 -243 -669
-417 -133 -132 -210 -241 -269 -384 -78 -186 -107 -315 -175 -772 -25 -171
-73 -470 -106 -665 -32 -195 -59 -358 -59 -362 0 -5 337 -8 749 -8 l749 0 16
68 c56 252 59 386 12 542 -71 231 -186 509 -352 849 -63 129 -114 238 -114
243 0 4 9 8 19 8 36 0 236 -338 357 -601 87 -191 188 -447 215 -549 37 -135
31 -289 -17 -527 l-6 -33 792 0 792 0 -61 68 c-136 155 -466 495 -582 602
-231 213 -274 276 -273 400 1 60 76 462 129 685 4 20 2 21 -81 13 -46 -4 -128
-19 -182 -34 -112 -31 -150 -34 -168 -10 -27 37 -211 739 -272 1037 l-28 136
-80 -76z"/>
<path d="M6625 2822 c-16 -11 -36 -26 -43 -35 -12 -14 -9 -17 25 -26 108 -29
166 -175 143 -362 -18 -149 -104 -437 -161 -538 l-21 -38 56 -304 c132 -710
145 -773 151 -767 23 23 364 1273 351 1286 -4 3 -112 -135 -162 -205 -34 -50
-72 -63 -109 -39 -24 16 -25 21 -25 119 0 379 -69 860 -130 909 -28 23 -38 22
-75 0z"/>
<path d="M7952 2353 c-35 -301 -40 -332 -70 -386 -33 -62 -69 -89 -170 -132
-116 -49 -140 -62 -147 -85 -9 -28 18 -68 81 -118 113 -90 122 -180 40 -402
-25 -69 -125 -370 -222 -670 -97 -300 -178 -548 -181 -553 -2 -4 185 -7 416
-7 l421 0 0 73 c0 39 -5 182 -12 317 -15 310 -7 388 52 507 67 135 179 240
340 317 81 39 137 46 147 20 7 -18 8 -17 -118 -113 -163 -124 -222 -193 -260
-302 -26 -76 -29 -185 -15 -571 l8 -248 430 0 431 0 -7 63 c-45 398 -290 1572
-402 1929 -61 194 -127 263 -354 370 -69 33 -181 87 -250 121 -69 34 -127 63
-130 65 -3 1 -16 -87 -28 -195z"/>
</g>
</svg>
